<svg fill="#000000" height="800px" width="800px" version="1.1" id="Layer_1" xmlns="http://www.w3.org/2000/svg" xmlns:xlink="http://www.w3.org/1999/xlink" 
	 viewBox="0 0 512.001 512.001" xml:space="preserve">
<g>
	<g>
		<path d="M469.686,287.944c-13.52-12.735-31.311-22.184-51.129-27.343c0.116-25.974,5.333-121.267,69.788-232.699
			c2.82-4.875,1.154-11.114-3.722-13.935c-4.876-2.822-11.116-1.155-13.935,3.722c-40.925,70.755-58.423,135.003-65.895,176.441
			c-5.124,28.42-6.395,50.146-6.614,62.667c-2.421-0.35-4.914-0.712-7.478-1.084c-3.521-7.5-13.308-29.961-21.738-64.271
			c-9.62-39.149-19.389-102.189-11.301-180.189c0.58-5.602-3.49-10.615-9.093-11.197c-5.604-0.589-10.616,3.49-11.198,9.093
			c-8.432,81.302,1.861,147.09,11.979,187.963c6.071,24.521,12.736,43.152,17.603,55.146
			c-69.904-10.159-168.477-24.279-223.442-27.764c-32.289-2.052-63.536,9.471-87.995,32.429
			c-26.53,24.901-41.745,60.128-41.745,96.648c0,36.519,15.215,71.746,41.745,96.647c4.947,4.643,10.172,8.818,15.626,12.508
			l-31.864,31.862c-3.983,3.983-3.983,10.441,0,14.425c1.992,1.991,4.602,2.987,7.212,2.987c2.61,0,5.221-0.996,7.212-2.987
			l35.998-35.998c14.638,6.483,30.372,9.866,46.481,9.866c2.435,0,4.88-0.078,7.329-0.234
			c52.268-3.313,145.419-16.688,213.436-26.455c9.868-1.417,19.416-2.787,28.254-4.043l56.863,56.863
			c1.992,1.991,4.602,2.987,7.212,2.987s5.221-0.996,7.212-2.987c3.983-3.983,3.983-10.441,0-14.425l-46.152-46.152
			c23.082-4.396,43.971-14.597,59.375-29.144c18.66-17.622,28.523-40.348,28.523-65.72
			C498.232,328.23,488.36,305.537,469.686,287.944z M400.737,429.369c-13.212,1.827-29.475,4.161-46.692,6.634
			c-67.679,9.718-160.367,23.028-211.826,26.289c-26.602,1.681-52.438-7.884-72.746-26.944
			c-22.438-21.061-35.307-50.867-35.307-81.775c0-30.909,12.869-60.714,35.307-81.776c18.778-17.625,42.28-27.134,66.746-27.134
			c1.993,0,3.995,0.063,5.998,0.191c56.994,3.613,162.582,18.974,232.452,29.141c9.429,1.372,18.172,2.644,26.01,3.772
			c38.403,5.531,77.154,31.116,77.154,75.805C477.834,398.572,439.112,424.065,400.737,429.369z"/>
	</g>
</g>
<g>
	<g>
		<path d="M145.483,273.188c-44.325,0-80.385,36.06-80.385,80.385s36.06,80.385,80.385,80.385s80.385-36.06,80.385-80.385
			S189.808,273.188,145.483,273.188z M145.483,413.56c-33.077,0-59.986-26.911-59.986-59.986s26.909-59.986,59.986-59.986
			s59.986,26.911,59.986,59.986S178.56,413.56,145.483,413.56z"/>
	</g>
</g>
<g>
	<g>
		<path d="M335.554,387.572h-21.44l-43.629-43.629c-3.983-3.981-10.441-3.982-14.424,0c-3.983,3.983-3.983,10.441,0,14.425
			l29.204,29.205h-1.041c-5.633,0-10.199,4.567-10.199,10.199c0,5.632,4.566,10.199,10.199,10.199h51.33
			c5.633,0,10.199-4.567,10.199-10.199C345.754,392.14,341.187,387.572,335.554,387.572z"/>
	</g>
</g>
</svg>